<?xml version="1.0" encoding="utf-8"?>
<!-- Generator: Adobe Illustrator 19.0.0, SVG Export Plug-In . SVG Version: 6.00 Build 0)  -->
<svg version="1.1" xmlns="http://www.w3.org/2000/svg" xmlns:xlink="http://www.w3.org/1999/xlink" x="0px" y="0px"
	 viewBox="-266 67 427 427" style="enable-background:new -266 67 427 427;" xml:space="preserve">
<style type="text/css">
	.st0{fill:#E02222;}
</style>
<g id="Calque_1">
	<g>
		<path class="st0" d="M2.4,221.7c-5.5,0-10,4.5-10,10v189c0,5.5,4.5,10,10,10s10-4.5,10-10v-189C12.4,226.2,7.9,221.7,2.4,221.7z"
			/>
		<path class="st0" d="M-115.6,221.7c-5.5,0-10,4.5-10,10v189c0,5.5,4.5,10,10,10s10-4.5,10-10v-189
			C-105.6,226.2-110.1,221.7-115.6,221.7z"/>
		<path class="st0" d="M-201.6,194.1v246.4c0,14.6,5.3,28.2,14.7,38.1c9.3,9.8,22.2,15.4,35.7,15.4H38c13.5,0,26.4-5.6,35.7-15.4
			c9.3-9.8,14.7-23.5,14.7-38.1V194.1c18.5-4.9,30.6-22.8,28.1-41.9c-2.5-19-18.7-33.3-37.9-33.3H27.4v-12.5
			c0.1-10.5-4.1-20.6-11.5-28C8.4,71-1.7,66.9-12.2,67H-101c-10.5-0.1-20.6,4-28.1,11.5c-7.4,7.4-11.6,17.5-11.5,28V119h-51.2
			c-19.2,0-35.4,14.2-37.9,33.3C-232.2,171.3-220.1,189.2-201.6,194.1z M38,474h-189.2c-17.1,0-30.4-14.7-30.4-33.5V195h250v245.5
			C68.4,459.3,55.1,474,38,474z M-120.6,106.5c-0.1-5.2,2-10.2,5.7-13.9c3.7-3.7,8.7-5.7,13.9-5.6h88.8C-7,86.9-2,88.9,1.7,92.6
			c3.7,3.7,5.7,8.7,5.7,13.9V119h-128V106.5z M-191.8,139H78.6c9.9,0,18,8.1,18,18s-8.1,18-18,18h-270.4c-9.9,0-18-8.1-18-18
			S-201.7,139-191.8,139z"/>
		<path class="st0" d="M-56.6,221.7c-5.5,0-10,4.5-10,10v189c0,5.5,4.5,10,10,10s10-4.5,10-10v-189
			C-46.6,226.2-51.1,221.7-56.6,221.7z"/>
	</g>
</g>
<g id="Calque_2">
</g>
</svg>
