<?xml version="1.0" encoding="utf-8"?>
<!-- Generator: Adobe Illustrator 19.0.0, SVG Export Plug-In . SVG Version: 6.00 Build 0)  -->
<svg version="1.1" xmlns="http://www.w3.org/2000/svg" xmlns:xlink="http://www.w3.org/1999/xlink" x="0px" y="0px"
	 viewBox="-266 67 427 427" style="enable-background:new -266 67 427 427;" xml:space="preserve">
<style type="text/css">
	.st0{fill:#E02222;}
</style>
<g id="Calque_1">
</g>
<g id="Calque_2">
	<path id="XMLID_676_" class="st0" d="M96.6,67c5.9,0,10.7,4.8,10.8,10.7c0.1,8.6,0.1,16.9-0.3,25.2c-0.2,3.3-2.5,7-4.9,9.6
		c-17.1,18-34.5,35.7-51.8,53.5l0,0c-4,4.1-4,10.6-0.1,14.8C63.8,194.9,76.7,209.2,91,222c13.1,11.7,19,24.4,16.5,41.5
		c-0.3,2-0.4,4-0.4,6.1c0,5.9-4.8,10.8-10.8,10.8h-263.6c-5.9,0-10.8,4.8-10.8,10.8v192.1c0,5.9-4.8,10.8-10.8,10.8h-13.6
		c-5.9,0-10.8-4.8-10.8-10.8V77.8c0-5.9,4.8-10.8,10.8-10.8H96.6z"/>
</g>
</svg>
