<?xml version="1.0" encoding="utf-8"?>
<!-- Generator: Adobe Illustrator 19.0.0, SVG Export Plug-In . SVG Version: 6.00 Build 0)  -->
<svg version="1.1" id="Calque_1" xmlns="http://www.w3.org/2000/svg" xmlns:xlink="http://www.w3.org/1999/xlink" x="0px" y="0px"
	 viewBox="-266 67 427 427" style="enable-background:new -266 67 427 427;" xml:space="preserve">
<g id="Calque_1_1_">
</g>
<g>
	<g>
		<path d="M-261.4,477l12.5,12.5c3.4,3.4,9,3.4,12.5,0l122.9-122.9c28.8,23.3,65.4,37.3,105.2,37.3c92.3,0,167.4-75.1,167.4-167.4
			S83.9,69-8.4,69s-167.4,75.1-167.4,167.4c0,39.8,14,76.4,37.3,105.2l-122.9,122.9C-264.9,467.9-264.9,473.5-261.4,477z
			 M-140.6,236.4c0-72.9,59.3-132.2,132.2-132.2s132.2,59.3,132.2,132.2S64.5,368.6-8.4,368.6S-140.6,309.3-140.6,236.4z"/>
	</g>
</g>
</svg>
