<?xml version="1.0" encoding="utf-8"?>
<!-- Generator: Adobe Illustrator 19.0.0, SVG Export Plug-In . SVG Version: 6.00 Build 0)  -->
<svg version="1.1" id="Calque_1" xmlns="http://www.w3.org/2000/svg" xmlns:xlink="http://www.w3.org/1999/xlink" x="0px" y="0px"
	 viewBox="-223 25 512 512" style="enable-background:new -223 25 512 512;" xml:space="preserve">
<style type="text/css">
	.st0{fill:#2599FF;}
</style>
<path class="st0" d="M233.9,25H39.6c-4,0-7.8,1.6-10.6,4.4l-235.9,235.8c-21.5,21.5-21.5,56.5,0,77.9l177.7,177.7
	C-18.8,531.3-5,537,9.8,537h0c14.8,0,28.6-5.7,39-16.1L284.6,285c2.8-2.8,4.4-6.6,4.4-10.6l0-194.3C289,49.7,264.3,25,233.9,25z
	 M259,268.2L27.5,499.7c-4.7,4.7-11,7.3-17.8,7.3c-6.7,0-13-2.6-17.8-7.3L-185.7,322c-9.8-9.8-9.8-25.7,0-35.5L45.8,55h188.1
	c13.8,0,25.1,11.3,25.1,25.1L259,268.2z"/>
<path class="st0" d="M156.8,110.1c-12.6,0-24.4,4.9-33.3,13.8c-8.9,8.9-13.8,20.7-13.8,33.3s4.9,24.4,13.8,33.3s20.7,13.8,33.3,13.8
	c12.6,0,24.4-4.9,33.3-13.8s13.8-20.7,13.8-33.3s-4.9-24.4-13.8-33.3C181.2,115,169.4,110.1,156.8,110.1z M168.9,169.3
	c-3.2,3.2-7.5,5-12.1,5c-4.6,0-8.9-1.8-12.1-5c-3.2-3.2-5-7.5-5-12.1s1.8-8.9,5-12.1c3.2-3.2,7.5-5,12.1-5s8.9,1.8,12.1,5
	c3.2,3.2,5,7.5,5,12.1S172.1,166.1,168.9,169.3z"/>
</svg>
