<?xml version="1.0" encoding="utf-8"?>
<!-- Generator: Adobe Illustrator 19.0.0, SVG Export Plug-In . SVG Version: 6.00 Build 0)  -->
<svg version="1.1" id="Calque_1" xmlns="http://www.w3.org/2000/svg" xmlns:xlink="http://www.w3.org/1999/xlink" x="0px" y="0px"
	 viewBox="-266 67 427 427" style="enable-background:new -266 67 427 427;" xml:space="preserve">
<style type="text/css">
	.st0{fill:#E02222;}
</style>
<path class="st0" d="M6.5,221.7c-5.5,0-10,4.5-10,10v189c0,5.5,4.5,10,10,10s10-4.5,10-10v-189C16.5,226.2,12,221.7,6.5,221.7z"/>
<path class="st0" d="M-111.5,221.7c-5.5,0-10,4.5-10,10v189c0,5.5,4.5,10,10,10s10-4.5,10-10v-189
	C-101.5,226.2-106,221.7-111.5,221.7z"/>
<path class="st0" d="M-197.5,194.1v246.4c0,14.6,5.3,28.2,14.7,38.1c9.3,9.8,22.2,15.4,35.7,15.4H42.1c13.5,0,26.4-5.6,35.7-15.4
	s14.7-23.5,14.7-38.1V194.1c18.5-4.9,30.6-22.8,28.1-41.9c-2.5-19-18.7-33.3-37.9-33.3H31.5v-12.5c0.1-10.5-4.1-20.6-11.5-28
	C12.5,71,2.4,66.9-8.1,67h-88.8c-10.5-0.1-20.6,4-28.1,11.5c-7.4,7.4-11.6,17.5-11.5,28V119h-51.2c-19.2,0-35.4,14.2-37.9,33.3
	C-228.1,171.3-216,189.2-197.5,194.1z M42.1,474h-189.2c-17.1,0-30.4-14.7-30.4-33.5V195h250v245.5C72.5,459.3,59.2,474,42.1,474z
	 M-116.5,106.5c-0.1-5.2,2-10.2,5.7-13.9c3.7-3.7,8.7-5.7,13.9-5.6h88.8c5.2-0.1,10.2,1.9,13.9,5.6s5.7,8.7,5.7,13.9V119h-128V106.5
	z M-187.7,139H82.7c9.9,0,18,8.1,18,18s-8.1,18-18,18h-270.4c-9.9,0-18-8.1-18-18S-197.6,139-187.7,139z"/>
<path class="st0" d="M-52.5,221.7c-5.5,0-10,4.5-10,10v189c0,5.5,4.5,10,10,10s10-4.5,10-10v-189C-42.5,226.2-47,221.7-52.5,221.7z"
	/>
</svg>
