<?xml version="1.0" encoding="utf-8"?>
<!-- Generator: Adobe Illustrator 19.0.0, SVG Export Plug-In . SVG Version: 6.00 Build 0)  -->
<svg version="1.1" id="Capa_1" xmlns="http://www.w3.org/2000/svg" xmlns:xlink="http://www.w3.org/1999/xlink" x="0px" y="0px"
	 viewBox="-260 61.5 438.5 438.5" style="enable-background:new -260 61.5 438.5 438.5;" xml:space="preserve">
<style type="text/css">
	.st0{fill:#FFFFFF;}
</style>
<g>
	<path class="st0" d="M172.8,182.5c-3.8-9.1-8.4-16.4-13.7-21.7L79.2,80.9c-5.3-5.3-12.6-9.9-21.7-13.7c-9.1-3.8-17.5-5.7-25.1-5.7
		h-264.9c-7.6,0-14.1,2.7-19.4,8c-5.3,5.3-8,11.8-8,19.4v383.7c0,7.6,2.7,14.1,8,19.4c5.3,5.3,11.8,8,19.4,8h383.7
		c7.6,0,14.1-2.7,19.4-8c5.3-5.3,8-11.8,8-19.4V207.6C178.5,200,176.6,191.7,172.8,182.5z M-77.3,107.1c0-2.5,0.9-4.6,2.7-6.4
		c1.8-1.8,3.9-2.7,6.4-2.7h54.8c2.5,0,4.6,0.9,6.4,2.7c1.8,1.8,2.7,3.9,2.7,6.4v91.4c0,2.5-0.9,4.6-2.7,6.4
		c-1.8,1.8-3.9,2.7-6.4,2.7h-54.8c-2.5,0-4.6-0.9-6.4-2.7c-1.8-1.8-2.7-3.9-2.7-6.4L-77.3,107.1L-77.3,107.1z M68.9,463.5h-219.3
		V353.8H68.9V463.5z M142,463.5h-36.6h0V344.7c0-7.6-2.7-14.1-8-19.4c-5.3-5.3-11.8-8-19.4-8h-237.5c-7.6,0-14.1,2.7-19.4,8
		c-5.3,5.3-8,11.8-8,19.4v118.8h-36.5V98h36.5v118.8c0,7.6,2.7,14.1,8,19.4c5.3,5.3,11.8,8,19.4,8H5c7.6,0,14.1-2.7,19.4-8
		c5.3-5.3,8-11.8,8-19.4V98c2.9,0,6.6,1,11.1,2.9c4.6,1.9,7.8,3.8,9.7,5.7l80.2,80.2c1.9,1.9,3.8,5.2,5.7,9.9
		c1.9,4.7,2.9,8.3,2.9,11L142,463.5L142,463.5z"/>
</g>
</svg>
